<svg width="13" height="10" viewBox="0 0 13 10" fill="none" xmlns="http://www.w3.org/2000/svg">
<path d="M12.9742 4.91411C12.4645 6.23249 11.5797 7.37264 10.4291 8.19363C9.27844 9.01461 7.91248 9.48045 6.5 9.53357C5.08752 9.48045 3.72156 9.01461 2.57094 8.19363C1.42033 7.37264 0.535501 6.23249 0.0258164 4.91411C-0.00860546 4.8189 -0.00860546 4.71464 0.0258164 4.61943C0.535501 3.30104 1.42033 2.16089 2.57094 1.33991C3.72156 0.518922 5.08752 0.0530822 6.5 -3.42131e-05C7.91248 0.0530822 9.27844 0.518922 10.4291 1.33991C11.5797 2.16089 12.4645 3.30104 12.9742 4.61943C13.0086 4.71464 13.0086 4.8189 12.9742 4.91411V4.91411ZM6.5 0.866657C4.20327 0.866657 1.77653 2.56971 0.896841 4.76677C1.77653 6.96383 4.20327 8.66688 6.5 8.66688C8.79673 8.66688 11.2235 6.96383 12.1032 4.76677C11.2235 2.56971 8.79673 0.866657 6.5 0.866657Z" fill="#788995"/>
<path d="M12.9742 4.91411C12.4645 6.23249 11.5797 7.37264 10.4291 8.19363C9.27844 9.01461 7.91248 9.48045 6.5 9.53357C5.08752 9.48045 3.72156 9.01461 2.57094 8.19363C1.42033 7.37264 0.535501 6.23249 0.0258164 4.91411C-0.00860546 4.8189 -0.00860546 4.71464 0.0258164 4.61943C0.535501 3.30104 1.42033 2.16089 2.57094 1.33991C3.72156 0.518922 5.08752 0.0530822 6.5 -3.42131e-05C7.91248 0.0530822 9.27844 0.518922 10.4291 1.33991C11.5797 2.16089 12.4645 3.30104 12.9742 4.61943C13.0086 4.71464 13.0086 4.8189 12.9742 4.91411V4.91411ZM6.5 0.866657C4.20327 0.866657 1.77653 2.56971 0.896841 4.76677C1.77653 6.96383 4.20327 8.66688 6.5 8.66688C8.79673 8.66688 11.2235 6.96383 12.1032 4.76677C11.2235 2.56971 8.79673 0.866657 6.5 0.866657Z" fill="black" fill-opacity="0.2"/>
<path d="M6.50047 7.36682C5.98622 7.36682 5.48352 7.21433 5.05594 6.92863C4.62836 6.64293 4.2951 6.23685 4.09831 5.76175C3.90152 5.28665 3.85003 4.76386 3.95035 4.2595C4.05068 3.75513 4.29831 3.29184 4.66194 2.92822C5.02556 2.56459 5.48885 2.31696 5.99322 2.21663C6.49758 2.11631 7.02037 2.1678 7.49547 2.36459C7.97057 2.56139 8.37665 2.89464 8.66235 3.32222C8.94805 3.7498 9.10054 4.2525 9.10054 4.76675C9.10054 5.45633 8.8266 6.11767 8.339 6.60528C7.85139 7.09289 7.19005 7.36682 6.50047 7.36682ZM6.50047 3.03337C6.15763 3.03337 5.8225 3.13503 5.53745 3.32549C5.2524 3.51596 5.03022 3.78668 4.89903 4.10341C4.76783 4.42015 4.73351 4.76867 4.80039 5.10491C4.86727 5.44116 5.03236 5.75002 5.27478 5.99243C5.5172 6.23485 5.82606 6.39994 6.1623 6.46682C6.49854 6.53371 6.84707 6.49938 7.1638 6.36818C7.48054 6.23699 7.75125 6.01482 7.94172 5.72976C8.13219 5.44471 8.23385 5.10958 8.23385 4.76675C8.23385 4.30703 8.05122 3.86613 7.72615 3.54106C7.40108 3.21599 6.96019 3.03337 6.50047 3.03337Z" fill="#788995"/>
<path d="M6.50047 7.36682C5.98622 7.36682 5.48352 7.21433 5.05594 6.92863C4.62836 6.64293 4.2951 6.23685 4.09831 5.76175C3.90152 5.28665 3.85003 4.76386 3.95035 4.2595C4.05068 3.75513 4.29831 3.29184 4.66194 2.92822C5.02556 2.56459 5.48885 2.31696 5.99322 2.21663C6.49758 2.11631 7.02037 2.1678 7.49547 2.36459C7.97057 2.56139 8.37665 2.89464 8.66235 3.32222C8.94805 3.7498 9.10054 4.2525 9.10054 4.76675C9.10054 5.45633 8.8266 6.11767 8.339 6.60528C7.85139 7.09289 7.19005 7.36682 6.50047 7.36682ZM6.50047 3.03337C6.15763 3.03337 5.8225 3.13503 5.53745 3.32549C5.2524 3.51596 5.03022 3.78668 4.89903 4.10341C4.76783 4.42015 4.73351 4.76867 4.80039 5.10491C4.86727 5.44116 5.03236 5.75002 5.27478 5.99243C5.5172 6.23485 5.82606 6.39994 6.1623 6.46682C6.49854 6.53371 6.84707 6.49938 7.1638 6.36818C7.48054 6.23699 7.75125 6.01482 7.94172 5.72976C8.13219 5.44471 8.23385 5.10958 8.23385 4.76675C8.23385 4.30703 8.05122 3.86613 7.72615 3.54106C7.40108 3.21599 6.96019 3.03337 6.50047 3.03337Z" fill="black" fill-opacity="0.2"/>
</svg>
