<svg width="18" height="14" viewBox="0 0 18 14" fill="none" xmlns="http://www.w3.org/2000/svg">
<path d="M9.0343 5.94605C9.01942 5.92704 9.0004 5.91166 8.9787 5.90108C8.95699 5.89051 8.93316 5.88501 8.90901 5.88501C8.88487 5.88501 8.86104 5.89051 8.83933 5.90108C8.81763 5.91166 8.79861 5.92704 8.78373 5.94605L6.55646 8.76395C6.53809 8.7874 6.5267 8.81554 6.52358 8.84516C6.52046 8.87477 6.52573 8.90467 6.5388 8.93143C6.55187 8.95819 6.57221 8.98074 6.59748 8.99648C6.62276 9.01223 6.65196 9.02055 6.68174 9.02048H8.15134V13.8409C8.15134 13.9284 8.22293 14 8.31043 14H9.50362C9.59112 14 9.66271 13.9284 9.66271 13.8409V9.02247H11.1363C11.2695 9.02247 11.3431 8.86935 11.2616 8.76594L9.0343 5.94605Z" fill="#E23636"/>
<path d="M14.8631 4.11052C13.9523 1.70824 11.6315 0 8.91308 0C6.19461 0 3.87387 1.70625 2.96307 4.10853C1.25881 4.55597 0 6.1091 0 7.95455C0 10.152 1.77983 11.9318 3.97529 11.9318H4.77273C4.86023 11.9318 4.93182 11.8602 4.93182 11.7727V10.5796C4.93182 10.4921 4.86023 10.4205 4.77273 10.4205H3.97529C3.30512 10.4205 2.67472 10.154 2.2054 9.67075C1.73807 9.1895 1.48949 8.5412 1.51136 7.86904C1.52926 7.34404 1.70824 6.85086 2.03239 6.43523C2.36449 6.01165 2.82983 5.70341 3.34688 5.5662L4.10057 5.36932L4.37699 4.64148C4.54802 4.18807 4.78665 3.76449 5.08694 3.38068C5.38339 3.00027 5.73454 2.66587 6.12898 2.38835C6.94631 1.81364 7.90881 1.50938 8.91308 1.50938C9.91734 1.50938 10.8798 1.81364 11.6972 2.38835C12.0929 2.66676 12.4429 3.00085 12.7392 3.38068C13.0395 3.76449 13.2781 4.19006 13.4492 4.64148L13.7236 5.36733L14.4753 5.5662C15.5531 5.85654 16.3068 6.83694 16.3068 7.95455C16.3068 8.61279 16.0503 9.23325 15.585 9.69859C15.3567 9.92813 15.0853 10.1101 14.7862 10.234C14.4872 10.3579 14.1666 10.4213 13.8429 10.4205H13.0455C12.958 10.4205 12.8864 10.4921 12.8864 10.5796V11.7727C12.8864 11.8602 12.958 11.9318 13.0455 11.9318H13.8429C16.0384 11.9318 17.8182 10.152 17.8182 7.95455C17.8182 6.11108 16.5634 4.55995 14.8631 4.11052Z" fill="#E23636"/>
</svg>
